<?xml version="1.0" encoding="UTF-8"?>
<svg width="75px" height="65px" viewBox="0 0 75 65" version="1.1" xmlns="http://www.w3.org/2000/svg" xmlns:xlink="http://www.w3.org/1999/xlink">
    <!-- Generator: Sketch 43.1 (39012) - http://www.bohemiancoding.com/sketch -->
    <title>icon3</title>
    <desc>Created with Sketch.</desc>
    <defs></defs>
    <g id="Page-1" stroke="none" stroke-width="1" fill="none" fill-rule="evenodd">
        <g id="Desktop-HD" transform="translate(-1081.000000, -3285.000000)" fill-rule="nonzero" fill="#003A7E">
            <g id="icon3" transform="translate(1081.000000, 3285.000000)">
                <ellipse id="Oval" cx="27.3905473" cy="15" rx="1.24502488" ry="1.25"></ellipse>
                <ellipse id="Oval" cx="28.6355721" cy="53.75" rx="1.24502488" ry="1.25"></ellipse>
                <ellipse id="Oval" cx="34.8606965" cy="48.75" rx="1.24502488" ry="1.25"></ellipse>
                <ellipse id="Oval" cx="27.3905473" cy="42.5" rx="1.24502488" ry="1.25"></ellipse>
                <ellipse id="Oval" cx="36.1057214" cy="41.25" rx="1.24502488" ry="1.25"></ellipse>
                <ellipse id="Oval" cx="28.6355721" cy="32.5" rx="1.24502488" ry="1.25"></ellipse>
                <ellipse id="Oval" cx="33.6156716" cy="22.5" rx="1.24502488" ry="1.25"></ellipse>
                <ellipse id="Oval" cx="26.1455224" cy="22.5" rx="1.24502488" ry="1.25"></ellipse>
                <ellipse id="Oval" cx="34.8606965" cy="8.75" rx="1.24502488" ry="1.25"></ellipse>
                <ellipse id="Oval" cx="17.4303483" cy="25" rx="1.24502488" ry="1.25"></ellipse>
                <ellipse id="Oval" cx="17.4303483" cy="28.75" rx="1.24502488" ry="1.25"></ellipse>
                <ellipse id="Oval" cx="17.4303483" cy="32.5" rx="1.24502488" ry="1.25"></ellipse>
                <ellipse id="Oval" cx="17.4303483" cy="36.25" rx="1.24502488" ry="1.25"></ellipse>
                <ellipse id="Oval" cx="17.4303483" cy="40" rx="1.24502488" ry="1.25"></ellipse>
                <path d="M73.4564677,35 L68.3817463,35 L68.2460386,36.09625 C66.3797463,51.14875 53.0978209,62.5 37.3507463,62.5 C32.3507264,62.5 28.8011604,61.36875 26.5003545,59.03875 C22.9968545,55.4925 22.422898,49.18875 22.373097,41.6625 C22.4552687,39.88 22.4415734,37.8075 22.424143,35.49125 C22.4179179,34.525 22.4104478,33.52375 22.4104478,32.5 C22.4104478,31.42 22.4191629,30.3675 22.4278781,29.35125 C22.4465535,27.015 22.4614938,24.93625 22.374342,23.15125 C22.4328582,15.705 23.0267351,9.4775 26.5015995,5.96 C28.8011604,3.63125 32.3507264,2.5 37.3507463,2.5 C53.0978209,2.5 66.3797463,13.85125 68.2460386,28.90375 L68.3817463,30 L73.4564677,30 C74.1437214,30 74.7014925,29.44125 74.7014925,28.75 C74.7014925,28.05875 74.1437214,27.5 73.4564677,27.5 L70.5617848,27.5 C68.0480796,11.745 53.9680933,0 37.3507463,0 C25.1507475,0 13.965444,4.70375 7.16138308,12.61625 C6.92731841,12.5475 6.68702861,12.5 6.43428856,12.5 C2.01320522,12.5 0,22.8675 0,32.5 C0,42.1325 2.01320522,52.5 6.43428856,52.5 C6.68702861,52.5 6.92731841,52.4525 7.16138308,52.38375 C13.965444,60.29625 25.1507475,65 37.3507463,65 C53.9680933,65 68.0480796,53.255 70.5617848,37.5 L73.4564677,37.5 C74.1437214,37.5 74.7014925,36.94125 74.7014925,36.25 C74.7014925,35.55875 74.1437214,35 73.4564677,35 Z M2.49004975,32.5 C2.49004975,21.22 5.07596642,15.0475 6.5015199,15.045 L6.52268532,15.0675 C7.61208209,16.2375 7.55481095,22.11375 7.50002985,27.7975 C7.48508955,29.3 7.47014925,30.875 7.47014925,32.5 C7.47014925,34.125 7.48508955,35.7 7.50002985,37.2025 C7.51497015,38.8075 7.52991045,40.425 7.51995025,41.95 C7.49131468,45.86375 7.28464055,49.16625 6.43428856,50 C5.09588682,50 2.49004975,43.82375 2.49004975,32.5 Z M8.9741393,50.69375 C9.37130224,49.8675 9.62404229,48.75625 9.7796704,47.3225 C9.78091542,47.31125 9.78216045,47.3 9.78340547,47.28875 C9.93778856,45.85 9.99754975,44.0875 10.01,41.96375 L10.01,41.95375 C10.0187152,40.535 10.00751,38.96375 9.9900796,37.21 C9.97638433,35.705 9.960199,34.1275 9.960199,32.5 C9.960199,30.8725 9.97638433,29.295 9.9900796,27.78875 C10.00751,26.035 10.0174701,24.46375 10.01,23.045 L10.01,23.035 C9.99754975,20.91125 9.93778856,19.14875 9.78340547,17.71 C9.78216045,17.69875 9.78091542,17.6875 9.7796704,17.67625 C9.62404229,16.24375 9.37130224,15.1325 8.9741393,14.305 C12.8362065,9.78375 18.26825,6.39125 24.5294801,4.42875 C21.7368893,7.40375 20.5976915,11.635 20.1532177,16.66 C19.7124789,16.3975 19.2157139,16.25 18.6753731,16.25 C14.4173881,16.25 11.2052239,23.23625 11.2052239,32.5 C11.2052239,41.76375 14.4173881,48.75 18.6753731,48.75 C19.2144689,48.75 19.7124789,48.60125 20.1532177,48.33375 C20.5976915,53.36125 21.7356443,57.59375 24.5294801,60.57 C18.26825,58.60625 12.8362065,55.215 8.9741393,50.69375 Z M19.8979876,28.3775 C19.9091928,29.72625 19.920398,31.1025 19.920398,32.5 C19.920398,33.8975 19.9091928,35.27375 19.8979876,36.6225 C19.8842923,38.3075 19.8730871,39.95 19.8830473,41.54875 C19.7822002,43.79375 19.5344403,45.54875 18.9530137,46.13625 C18.867107,46.2225 18.7998756,46.25 18.6753731,46.25 C16.3247662,46.25 13.6952736,40.37 13.6952736,32.5 C13.6952736,24.63 16.3247662,18.75 18.6753731,18.75 C18.8098358,18.75 18.8820473,18.77875 18.9716891,18.87 C19.5356853,19.44125 19.7809552,21.10375 19.8830473,23.23875 C19.871842,24.90375 19.8842923,26.6175 19.8979876,28.3775 Z" id="Shape"></path>
                <path d="M73.4564677,31.25 L66.5017587,31.25 L46.0659204,10.7325 L46.0659204,6.25 C46.0659204,5.55875 45.5081493,5 44.8208955,5 C44.1336418,5 43.5758706,5.55875 43.5758706,6.25 L43.5758706,10 L39.840796,10 C39.1535423,10 38.5957711,10.55875 38.5957711,11.25 C38.5957711,11.94125 39.1535423,12.5 39.840796,12.5 L44.3054552,12.5 L62.9808284,31.25 L56.5415597,31.25 L47.5686654,22.24125 C47.4927189,22.165 47.399342,22.1225 47.3109453,22.07 L47.3109453,17.5 C47.3109453,16.80875 46.7531741,16.25 46.0659204,16.25 C45.3786667,16.25 44.8208955,16.80875 44.8208955,17.5 L44.8208955,21.25 L41.0858209,21.25 C40.3985672,21.25 39.840796,21.80875 39.840796,22.5 C39.840796,23.19125 40.3985672,23.75 41.0858209,23.75 L45.6363868,23.75 C45.6886779,23.83875 45.7310087,23.9325 45.8082002,24.00875 L53.0206294,31.25 L51.0460199,31.25 L40.3562363,31.25 L36.985954,27.86625 C36.4991493,27.3775 35.7122935,27.3775 35.2254888,27.86625 C34.7386841,28.355 34.7386841,29.145 35.2254888,29.63375 L38.0803308,32.5 L35.2254888,35.36625 C34.7386841,35.855 34.7386841,36.645 35.2254888,37.13375 C35.4682687,37.3775 35.786995,37.5 36.1057214,37.5 C36.4244478,37.5 36.7431741,37.3775 36.985954,37.13375 L40.3562363,33.75 L51.0460199,33.75 L53.0206294,33.75 L45.5504801,41.25 L41.0858209,41.25 C40.3985672,41.25 39.840796,41.80875 39.840796,42.5 C39.840796,43.19125 40.3985672,43.75 41.0858209,43.75 L44.8208955,43.75 L44.8208955,47.5 C44.8208955,48.19125 45.3786667,48.75 46.0659204,48.75 C46.7531741,48.75 47.3109453,48.19125 47.3109453,47.5 L47.3109453,43.0175 L56.5415597,33.75 L62.9808284,33.75 L44.3054552,52.5 L39.840796,52.5 C39.1535423,52.5 38.5957711,53.05875 38.5957711,53.75 C38.5957711,54.44125 39.1535423,55 39.840796,55 L43.5758706,55 L43.5758706,58.75 C43.5758706,59.44125 44.1336418,60 44.8208955,60 C45.5081493,60 46.0659204,59.44125 46.0659204,58.75 L46.0659204,54.2675 L66.5017587,33.75 L73.4564677,33.75 C74.1437214,33.75 74.7014925,33.19125 74.7014925,32.5 C74.7014925,31.80875 74.1437214,31.25 73.4564677,31.25 Z" id="Shape"></path>
            </g>
        </g>
    </g>
</svg>