<?xml version="1.0" encoding="UTF-8"?>
<svg width="60px" height="57px" viewBox="0 0 60 57" version="1.1" xmlns="http://www.w3.org/2000/svg" xmlns:xlink="http://www.w3.org/1999/xlink">
    <!-- Generator: Sketch 43.1 (39012) - http://www.bohemiancoding.com/sketch -->
    <title>icon2</title>
    <desc>Created with Sketch.</desc>
    <defs></defs>
    <g id="Page-1" stroke="none" stroke-width="1" fill="none" fill-rule="evenodd">
        <g id="Desktop-HD" transform="translate(-704.000000, -3290.000000)" fill-rule="nonzero" fill="#003A7E">
            <g id="icon2" transform="translate(704.000000, 3290.000000)">
                <path d="M59.413,5.229 C59.413,3.983 58.928,2.812 58.047,1.932 C56.229,0.113 53.271,0.115 51.452,1.932 L18.127,35.258 C17.618,35.767 17.403,36.481 17.497,37.182 L0.293,54.386 C0.054,54.625 -0.049,54.969 0.022,55.301 C0.093,55.633 0.326,55.905 0.641,56.027 C0.805,56.09 2.829,56.845 5.565,56.845 C8.274,56.845 11.68,56.103 14.66,53.21 L21.783,46.086 C22.019,45.85 22.122,45.511 22.056,45.183 L21.514,42.47 L23.819,40.164 L24.173,40.246 C24.418,40.303 24.665,40.33 24.909,40.33 C25.758,40.33 26.576,39.997 27.194,39.379 L54.19,12.384 C54.19,12.383 54.191,12.383 54.191,12.383 L58.047,8.527 C58.928,7.646 59.413,6.475 59.413,5.229 Z M49.883,13.863 L47.529,8.684 L49.904,6.308 L52.258,11.487 L49.883,13.863 Z M45.997,17.749 L43.643,12.57 L46.018,10.195 L48.372,15.374 L45.997,17.749 Z M21.522,39.634 L19.721,41.434 C19.485,41.67 19.382,42.009 19.448,42.337 L19.99,45.05 L13.257,51.785 C9.636,55.3 5.227,55.047 2.924,54.584 L18.632,38.876 C18.638,38.879 18.645,38.88 18.651,38.883 C18.831,38.981 19.026,39.057 19.231,39.105 L21.522,39.634 Z M25.781,37.965 C25.477,38.27 25.047,38.395 24.623,38.297 L19.681,37.156 C19.629,37.144 19.598,37.118 19.567,37.092 C19.545,37.073 19.522,37.053 19.502,37.018 C19.491,36.997 19.474,36.975 19.468,36.955 C19.447,36.881 19.442,36.771 19.541,36.671 L42.132,14.08 L44.486,19.259 L25.781,37.965 Z M56.633,7.113 L53.768,9.978 L51.414,4.799 L52.867,3.346 C53.387,2.827 54.068,2.568 54.751,2.568 C55.433,2.568 56.114,2.827 56.634,3.346 C57.137,3.849 57.414,4.518 57.414,5.229 C57.414,5.94 57.136,6.61 56.633,7.113 Z" id="Shape"></path>
                <path d="M12.759,46.859 L10.759,48.859 C10.368,49.25 10.368,49.882 10.759,50.273 C10.954,50.468 11.21,50.566 11.466,50.566 C11.722,50.566 11.978,50.468 12.173,50.273 L14.173,48.273 C14.564,47.882 14.564,47.25 14.173,46.859 C13.782,46.468 13.15,46.468 12.759,46.859 Z" id="Shape"></path>
                <path d="M8.753,50.856 C8.573,51.046 8.463,51.306 8.463,51.566 C8.463,51.826 8.573,52.086 8.753,52.276 C8.943,52.456 9.203,52.566 9.463,52.566 C9.733,52.566 9.983,52.456 10.173,52.276 C10.363,52.086 10.463,51.826 10.463,51.566 C10.463,51.306 10.363,51.046 10.173,50.856 C9.803,50.486 9.133,50.486 8.753,50.856 Z" id="Shape"></path>
            </g>
        </g>
    </g>
</svg>