<?xml version="1.0" encoding="UTF-8"?>
<svg width="53px" height="65px" viewBox="0 0 53 65" version="1.1" xmlns="http://www.w3.org/2000/svg" xmlns:xlink="http://www.w3.org/1999/xlink">
    <!-- Generator: Sketch 43.1 (39012) - http://www.bohemiancoding.com/sketch -->
    <title>acon1</title>
    <desc>Created with Sketch.</desc>
    <defs></defs>
    <g id="Page-1" stroke="none" stroke-width="1" fill="none" fill-rule="evenodd">
        <g id="Desktop-HD" transform="translate(-314.000000, -3286.000000)" fill-rule="nonzero" fill="#003A7E">
            <g id="acon1" transform="translate(314.000000, 3286.000000)">
                <path d="M47.9447332,54.8989746 L46.8186677,51.6051758 C46.6988735,51.255166 46.5625915,50.9142969 46.413686,50.580918 C50.4642759,47.2586816 52.7719245,42.4359863 52.7719245,37.2231641 C52.7719245,33.1081055 51.2811951,29.1130176 48.5743613,25.9735937 C46.2215,23.2447363 43.0767088,21.2991797 39.6037073,20.3978125 L43.9448948,13.6333691 C44.0874886,13.4112012 44.1347622,13.1423145 44.0761532,12.8858691 C44.0175442,12.6294238 43.8580762,12.4063672 43.632657,12.2658301 L41.9881273,11.2406836 L43.0115305,9.64602539 L44.6560602,10.6712988 C44.8228704,10.7751465 45.0088735,10.8249121 45.1925579,10.8249121 C45.5259207,10.8249121 45.8520701,10.6617773 46.0434832,10.3634375 L48.1662881,7.05554687 C48.3088819,6.83337891 48.3561555,6.56449219 48.2975465,6.30804687 C48.2389375,6.05160156 48.0794695,5.82854492 47.8540503,5.68800781 L38.975625,0.153359375 C38.5062378,-0.138759766 37.8851113,-0.00139648438 37.588202,0.461220703 L35.4653971,3.76911133 C35.3228034,3.9912793 35.2756585,4.26016602 35.3341387,4.51661133 C35.3927477,4.77305664 35.5522157,4.99611328 35.7776349,5.13665039 L37.4221646,6.16179687 L36.3987614,7.75645508 L34.7542317,6.73118164 C34.2849733,6.43893555 33.6635892,6.57642578 33.3668087,7.03904297 L18.8825297,29.6087695 L17.6607576,28.8471777 C17.4353384,28.7067676 17.1625168,28.6600488 16.9021898,28.7179395 C16.6419916,28.7757031 16.4156707,28.9327441 16.273077,29.1550391 L14.1502721,32.4630566 C13.8533628,32.9256738 13.9931227,33.5378418 14.4625099,33.8304688 L27.4842691,41.9479785 C27.6510793,42.0518262 27.8370823,42.1015918 28.0208956,42.1015918 C28.3542584,42.1015918 28.680279,41.9383301 28.8718209,41.6401172 L30.9946258,38.3322266 C31.2915351,37.8696094 31.1517752,37.2574414 30.682388,36.9648145 L29.4606159,36.2032227 L33.0330595,30.6368359 C33.7067409,30.4286328 34.407859,30.3228809 35.1222447,30.3228809 C38.9828384,30.3228809 42.1237652,33.4183789 42.1237652,37.223418 C42.1237652,40.021084 40.386878,42.5522754 37.7725305,43.6097949 C36.9143918,43.4243164 36.0273994,43.3250391 35.1221159,43.3250391 L14.5343864,43.3250391 C10.7566181,43.3250391 7.68293064,46.3542676 7.68293064,50.0778027 C7.68293064,50.6252246 8.133125,51.0689258 8.68855793,51.0689258 L23.6248346,51.0689258 C23.5548902,51.2457715 23.4877797,51.4241406 23.4256928,51.6054297 L22.3171456,54.8479395 L5.44277896,54.8479395 C2.46389634,54.8479395 0.0401890244,57.2365625 0.0401890244,60.1724805 L0.0401890244,64.00875 C0.0401890244,64.5561719 0.490383384,64.999873 1.04581631,64.999873 L51.6016768,64.999873 C52.1571098,64.999873 52.6073041,64.5561719 52.6073041,64.00875 L52.6073041,60.1723535 C52.6074329,57.4837402 50.5747957,55.2557129 47.9447332,54.8989746 Z M38.7504634,2.35853516 L45.9290991,6.83350586 L44.8814794,8.46612305 L43.2374649,7.44123047 C43.2373361,7.44110352 43.2370785,7.44097656 43.2369497,7.44084961 L39.3475023,5.01617188 C39.3472447,5.01604492 39.3468582,5.01579102 39.3466006,5.01566406 L37.7029726,3.99102539 L38.7504634,2.35853516 Z M41.3117409,8.58634766 L40.2884665,10.1810059 L38.0988087,8.81600586 L39.1220831,7.22134766 L41.3117409,8.58634766 Z M27.7096883,39.7428027 L16.3877187,32.6849707 L17.4353384,31.0522266 L18.6556936,31.8130566 C18.65608,31.8133105 18.6564665,31.8136914 18.6571105,31.8139453 L27.5355358,37.3485937 L27.5356646,37.3487207 L28.7570503,38.1101855 L27.7096883,39.7428027 Z M27.7608262,35.143418 L27.5213666,34.9941211 L20.5823194,30.6683203 L34.5289413,8.93648437 L36.172827,9.96125 C36.1730846,9.96137695 36.1732134,9.96150391 36.173471,9.96163086 L40.0629184,12.3863086 C40.0631761,12.3864355 40.0634337,12.3865625 40.0636913,12.3866895 L41.7074482,13.4113281 L37.1373636,20.5326367 C37.1373636,20.5326367 37.1372348,20.5328906 37.1371059,20.5328906 L33.9838133,25.4464844 L27.7608262,35.143418 Z M44.1350198,37.2231641 C44.1350198,32.3251855 40.0919009,28.3402539 35.1221159,28.3402539 C34.9115099,28.3402539 34.7016768,28.3473633 34.493003,28.361709 L38.4368087,22.2162891 L38.4690114,22.1661426 C41.7918194,22.8843164 44.8157858,24.675498 47.0418971,27.2572168 C49.4400998,30.0385059 50.76067,33.577832 50.76067,37.2231641 C50.76067,41.7080371 48.8327561,45.8687988 45.4331768,48.8021777 C45.4210686,48.7841504 45.4083163,48.7667578 45.3960793,48.7486035 C45.3365686,48.6603711 45.2761563,48.5730273 45.2144558,48.4866992 C45.1943613,48.4585156 45.1738803,48.4305859 45.1535282,48.4026562 C45.0853872,48.3089648 45.0163445,48.2160352 44.9457561,48.124375 C44.9350648,48.1106641 44.9241159,48.0969531 44.9134245,48.0832422 C43.7024726,46.5274316 42.1304634,45.2865918 40.3378011,44.4630469 C42.6744322,42.8212891 44.1350198,40.1343262 44.1350198,37.2231641 Z M33.4116349,45.4480762 C35.8339253,45.0491895 38.3874741,45.5304688 40.4869642,46.7875586 C42.5476822,48.021416 44.1428773,49.9861426 44.9127805,52.2380371 L45.8050541,54.8478125 L24.439564,54.8478125 L25.3318377,52.2380371 C25.5323963,51.6513867 25.7849947,51.0931738 26.0806159,50.5650488 C26.0821616,50.5623828 26.0840937,50.5602246 26.0855107,50.5574316 C27.6059954,47.8493945 30.2765046,46.0001953 33.3062675,45.4667383 C33.3414329,45.4605176 33.3763407,45.453916 33.4116349,45.4480762 Z M9.79916616,49.0862988 C10.2631433,46.929873 12.2099924,45.3071582 14.5341288,45.3071582 L28.3670107,45.3071582 C26.868295,46.2730176 25.586497,47.5580371 24.627628,49.0862988 L9.79916616,49.0862988 Z M50.5961784,63.0175 L50.5960495,63.0175 L2.05170122,63.0175 L2.05170122,60.1723535 C2.05170122,58.329375 3.57295884,56.8301855 5.44290777,56.8301855 L23.0395175,56.8301855 L47.2051006,56.8301855 C49.0749207,56.8301855 50.5961784,58.329375 50.5961784,60.1723535 L50.5961784,63.0175 Z" id="Shape"></path>
                <path d="M35.1221159,46.8925488 C33.3402736,46.8925488 31.8907637,48.3211523 31.8907637,50.0772949 C31.8907637,51.8334375 33.3402736,53.262168 35.1221159,53.262168 C36.9039581,53.262168 38.353468,51.8333105 38.353468,50.0772949 C38.3535968,48.3212793 36.9039581,46.8925488 35.1221159,46.8925488 Z M35.1221159,51.2800488 C34.4493361,51.2800488 33.9020183,50.740625 33.9020183,50.0774219 C33.9020183,49.4143457 34.4494649,48.8749219 35.1221159,48.8749219 C35.7948956,48.8749219 36.3422134,49.4143457 36.3422134,50.0774219 C36.3422134,50.740625 35.7948956,51.2800488 35.1221159,51.2800488 Z" id="Shape"></path>
            </g>
        </g>
    </g>
</svg>